<?xml version="1.0" encoding="utf-8" standalone="no"?>
<!DOCTYPE svg PUBLIC "-//W3C//DTD SVG 1.1//EN"
  "http://www.w3.org/Graphics/SVG/1.1/DTD/svg11.dtd">
<!-- Created with matplotlib (http://matplotlib.org/) -->
<svg height="155pt" version="1.1" viewBox="0 0 609 155" width="609pt" xmlns="http://www.w3.org/2000/svg" xmlns:xlink="http://www.w3.org/1999/xlink">
 <defs>
  <style type="text/css">
*{stroke-linecap:butt;stroke-linejoin:round;}
  </style>
 </defs>
 <g id="figure_1">
  <g id="patch_1">
   <path d="
M0 155.392
L609.595 155.392
L609.595 0
L0 0
z
" style="fill:#ffffff;"/>
  </g>
  <g id="axes_1">
   <g id="PathCollection_1">
    <defs>
     <path d="
M0 2.23607
C0.593012 2.23607 1.16182 2.00046 1.58114 1.58114
C2.00046 1.16182 2.23607 0.593012 2.23607 0
C2.23607 -0.593012 2.00046 -1.16182 1.58114 -1.58114
C1.16182 -2.00046 0.593012 -2.23607 0 -2.23607
C-0.593012 -2.23607 -1.16182 -2.00046 -1.58114 -1.58114
C-2.00046 -1.16182 -2.23607 -0.593012 -2.23607 0
C-2.23607 0.593012 -2.00046 1.16182 -1.58114 1.58114
C-1.16182 2.00046 -0.593012 2.23607 0 2.23607
z
" id="C0_0_919e3f95db"/>
    </defs>
    <g clip-path="url(#p6224cf1f7c)">
     <use style="fill:none;" x="117.734285714" xlink:href="#C0_0_919e3f95db" y="32.9354464286"/>
    </g>
   </g>
   <g id="PathCollection_2">
    <defs>
     <path d="
M0 2.23607
C0.593012 2.23607 1.16182 2.00046 1.58114 1.58114
C2.00046 1.16182 2.23607 0.593012 2.23607 0
C2.23607 -0.593012 2.00046 -1.16182 1.58114 -1.58114
C1.16182 -2.00046 0.593012 -2.23607 0 -2.23607
C-0.593012 -2.23607 -1.16182 -2.00046 -1.58114 -1.58114
C-2.00046 -1.16182 -2.23607 -0.593012 -2.23607 0
C-2.23607 0.593012 -2.00046 1.16182 -1.58114 1.58114
C-1.16182 2.00046 -0.593012 2.23607 0 2.23607
z
" id="C1_0_919e3f95db"/>
    </defs>
    <g clip-path="url(#p6224cf1f7c)">
     <use style="fill:none;" x="157.591428571" xlink:href="#C1_0_919e3f95db" y="72.7925892857"/>
    </g>
   </g>
   <g id="PathCollection_3">
    <defs>
     <path d="
M0 2.23607
C0.593012 2.23607 1.16182 2.00046 1.58114 1.58114
C2.00046 1.16182 2.23607 0.593012 2.23607 0
C2.23607 -0.593012 2.00046 -1.16182 1.58114 -1.58114
C1.16182 -2.00046 0.593012 -2.23607 0 -2.23607
C-0.593012 -2.23607 -1.16182 -2.00046 -1.58114 -1.58114
C-2.00046 -1.16182 -2.23607 -0.593012 -2.23607 0
C-2.23607 0.593012 -2.00046 1.16182 -1.58114 1.58114
C-1.16182 2.00046 -0.593012 2.23607 0 2.23607
z
" id="C2_0_919e3f95db"/>
    </defs>
    <g clip-path="url(#p6224cf1f7c)">
     <use style="fill:none;" x="197.448571429" xlink:href="#C2_0_919e3f95db" y="72.7925892857"/>
    </g>
   </g>
   <g id="PathCollection_4">
    <defs>
     <path d="
M0 2.23607
C0.593012 2.23607 1.16182 2.00046 1.58114 1.58114
C2.00046 1.16182 2.23607 0.593012 2.23607 0
C2.23607 -0.593012 2.00046 -1.16182 1.58114 -1.58114
C1.16182 -2.00046 0.593012 -2.23607 0 -2.23607
C-0.593012 -2.23607 -1.16182 -2.00046 -1.58114 -1.58114
C-2.00046 -1.16182 -2.23607 -0.593012 -2.23607 0
C-2.23607 0.593012 -2.00046 1.16182 -1.58114 1.58114
C-1.16182 2.00046 -0.593012 2.23607 0 2.23607
z
" id="C3_0_919e3f95db"/>
    </defs>
    <g clip-path="url(#p6224cf1f7c)">
     <use style="fill:none;" x="237.305714286" xlink:href="#C3_0_919e3f95db" y="112.649732143"/>
    </g>
   </g>
   <g id="PathCollection_5">
    <defs>
     <path d="
M0 2.23607
C0.593012 2.23607 1.16182 2.00046 1.58114 1.58114
C2.00046 1.16182 2.23607 0.593012 2.23607 0
C2.23607 -0.593012 2.00046 -1.16182 1.58114 -1.58114
C1.16182 -2.00046 0.593012 -2.23607 0 -2.23607
C-0.593012 -2.23607 -1.16182 -2.00046 -1.58114 -1.58114
C-2.00046 -1.16182 -2.23607 -0.593012 -2.23607 0
C-2.23607 0.593012 -2.00046 1.16182 -1.58114 1.58114
C-1.16182 2.00046 -0.593012 2.23607 0 2.23607
z
" id="C4_0_919e3f95db"/>
    </defs>
    <g clip-path="url(#p6224cf1f7c)">
     <use style="fill:none;" x="277.162857143" xlink:href="#C4_0_919e3f95db" y="32.9354464286"/>
    </g>
   </g>
   <g id="PathCollection_6">
    <defs>
     <path d="
M0 2.23607
C0.593012 2.23607 1.16182 2.00046 1.58114 1.58114
C2.00046 1.16182 2.23607 0.593012 2.23607 0
C2.23607 -0.593012 2.00046 -1.16182 1.58114 -1.58114
C1.16182 -2.00046 0.593012 -2.23607 0 -2.23607
C-0.593012 -2.23607 -1.16182 -2.00046 -1.58114 -1.58114
C-2.00046 -1.16182 -2.23607 -0.593012 -2.23607 0
C-2.23607 0.593012 -2.00046 1.16182 -1.58114 1.58114
C-1.16182 2.00046 -0.593012 2.23607 0 2.23607
z
" id="C5_0_919e3f95db"/>
    </defs>
    <g clip-path="url(#p6224cf1f7c)">
     <use style="fill:none;" x="317.02" xlink:href="#C5_0_919e3f95db" y="72.7925892857"/>
    </g>
   </g>
   <g id="PathCollection_7">
    <defs>
     <path d="
M0 2.23607
C0.593012 2.23607 1.16182 2.00046 1.58114 1.58114
C2.00046 1.16182 2.23607 0.593012 2.23607 0
C2.23607 -0.593012 2.00046 -1.16182 1.58114 -1.58114
C1.16182 -2.00046 0.593012 -2.23607 0 -2.23607
C-0.593012 -2.23607 -1.16182 -2.00046 -1.58114 -1.58114
C-2.00046 -1.16182 -2.23607 -0.593012 -2.23607 0
C-2.23607 0.593012 -2.00046 1.16182 -1.58114 1.58114
C-1.16182 2.00046 -0.593012 2.23607 0 2.23607
z
" id="C6_0_919e3f95db"/>
    </defs>
    <g clip-path="url(#p6224cf1f7c)">
     <use style="fill:none;" x="356.877142857" xlink:href="#C6_0_919e3f95db" y="32.9354464286"/>
    </g>
   </g>
   <g id="PathCollection_8">
    <defs>
     <path d="
M0 2.23607
C0.593012 2.23607 1.16182 2.00046 1.58114 1.58114
C2.00046 1.16182 2.23607 0.593012 2.23607 0
C2.23607 -0.593012 2.00046 -1.16182 1.58114 -1.58114
C1.16182 -2.00046 0.593012 -2.23607 0 -2.23607
C-0.593012 -2.23607 -1.16182 -2.00046 -1.58114 -1.58114
C-2.00046 -1.16182 -2.23607 -0.593012 -2.23607 0
C-2.23607 0.593012 -2.00046 1.16182 -1.58114 1.58114
C-1.16182 2.00046 -0.593012 2.23607 0 2.23607
z
" id="C7_0_919e3f95db"/>
    </defs>
    <g clip-path="url(#p6224cf1f7c)">
     <use style="fill:none;" x="396.734285714" xlink:href="#C7_0_919e3f95db" y="72.7925892857"/>
    </g>
   </g>
   <g id="PathCollection_9">
    <defs>
     <path d="
M0 2.23607
C0.593012 2.23607 1.16182 2.00046 1.58114 1.58114
C2.00046 1.16182 2.23607 0.593012 2.23607 0
C2.23607 -0.593012 2.00046 -1.16182 1.58114 -1.58114
C1.16182 -2.00046 0.593012 -2.23607 0 -2.23607
C-0.593012 -2.23607 -1.16182 -2.00046 -1.58114 -1.58114
C-2.00046 -1.16182 -2.23607 -0.593012 -2.23607 0
C-2.23607 0.593012 -2.00046 1.16182 -1.58114 1.58114
C-1.16182 2.00046 -0.593012 2.23607 0 2.23607
z
" id="C8_0_919e3f95db"/>
    </defs>
    <g clip-path="url(#p6224cf1f7c)">
     <use style="fill:none;" x="436.591428571" xlink:href="#C8_0_919e3f95db" y="32.9354464286"/>
    </g>
   </g>
   <g id="PathCollection_10">
    <defs>
     <path d="
M0 2.23607
C0.593012 2.23607 1.16182 2.00046 1.58114 1.58114
C2.00046 1.16182 2.23607 0.593012 2.23607 0
C2.23607 -0.593012 2.00046 -1.16182 1.58114 -1.58114
C1.16182 -2.00046 0.593012 -2.23607 0 -2.23607
C-0.593012 -2.23607 -1.16182 -2.00046 -1.58114 -1.58114
C-2.00046 -1.16182 -2.23607 -0.593012 -2.23607 0
C-2.23607 0.593012 -2.00046 1.16182 -1.58114 1.58114
C-1.16182 2.00046 -0.593012 2.23607 0 2.23607
z
" id="C9_0_919e3f95db"/>
    </defs>
    <g clip-path="url(#p6224cf1f7c)">
     <use style="fill:none;" x="476.448571429" xlink:href="#C9_0_919e3f95db" y="112.649732143"/>
    </g>
   </g>
   <g id="PathCollection_11">
    <defs>
     <path d="
M0 2.23607
C0.593012 2.23607 1.16182 2.00046 1.58114 1.58114
C2.00046 1.16182 2.23607 0.593012 2.23607 0
C2.23607 -0.593012 2.00046 -1.16182 1.58114 -1.58114
C1.16182 -2.00046 0.593012 -2.23607 0 -2.23607
C-0.593012 -2.23607 -1.16182 -2.00046 -1.58114 -1.58114
C-2.00046 -1.16182 -2.23607 -0.593012 -2.23607 0
C-2.23607 0.593012 -2.00046 1.16182 -1.58114 1.58114
C-1.16182 2.00046 -0.593012 2.23607 0 2.23607
z
" id="Ca_0_919e3f95db"/>
    </defs>
    <g clip-path="url(#p6224cf1f7c)">
     <use style="fill:none;" x="516.305714286" xlink:href="#Ca_0_919e3f95db" y="112.649732143"/>
    </g>
   </g>
   <g id="PathCollection_12">
    <defs>
     <path d="
M0 2.23607
L0 -2.23607" id="Cb_0_787a58101e"/>
    </defs>
    <g clip-path="url(#p6224cf1f7c)">
     <use style="fill:#737495;stroke:#737495;stroke-width:2.0;" x="356.877142857" xlink:href="#Cb_0_787a58101e" y="32.9354464286"/>
    </g>
   </g>
   <g id="PathCollection_13">
    <defs>
     <path d="
M0 2.23607
L0 -2.23607" id="Cc_0_787a58101e"/>
    </defs>
    <g clip-path="url(#p6224cf1f7c)">
     <use style="fill:#737495;stroke:#737495;stroke-width:2.0;" x="436.591428571" xlink:href="#Cc_0_787a58101e" y="32.9354464286"/>
    </g>
   </g>
   <g id="PathCollection_14">
    <defs>
     <path d="
M0 2.23607
L0 -2.23607" id="Cd_0_787a58101e"/>
    </defs>
    <g clip-path="url(#p6224cf1f7c)">
     <use style="fill:#737495;stroke:#737495;stroke-width:2.0;" x="317.02" xlink:href="#Cd_0_787a58101e" y="72.7925892857"/>
    </g>
   </g>
   <g id="PathCollection_15">
    <defs>
     <path d="
M0 2.23607
L0 -2.23607" id="Ce_0_787a58101e"/>
    </defs>
    <g clip-path="url(#p6224cf1f7c)">
     <use style="fill:#737495;stroke:#737495;stroke-width:2.0;" x="396.734285714" xlink:href="#Ce_0_787a58101e" y="72.7925892857"/>
    </g>
   </g>
   <g id="line2d_1">
    <path clip-path="url(#p6224cf1f7c)" d="
M356.877 32.9354
L436.591 32.9354" style="fill:none;stroke:#737495;stroke-linecap:square;stroke-width:2;"/>
   </g>
   <g id="line2d_2">
    <path clip-path="url(#p6224cf1f7c)" d="
M317.02 72.7926
L396.734 72.7926" style="fill:none;stroke:#737495;stroke-linecap:square;stroke-width:2;"/>
   </g>
   <g id="text_1">
    <!-- process A -->
    <defs>
     <path d="
M56.3906 43.4062
Q53.5156 45.6562 50.5312 46.6719
Q47.5625 47.7031 44 47.7031
Q35.5938 47.7031 31.1406 42.4219
Q26.7031 37.1562 26.7031 27.2031
L26.7031 0
L17.6719 0
L17.6719 54.6875
L26.7031 54.6875
L26.7031 44
Q28.9531 49.8125 33.6094 52.9062
Q38.2812 56 44.6719 56
Q48 56 50.875 55.1719
Q53.7656 54.3438 56.3906 52.5938
z
" id="DejaVuSansMono-72"/>
     <path d="
M47.5156 52.7812
L47.5156 44
Q43.6562 46.2344 39.75 47.3594
Q35.8438 48.4844 31.7812 48.4844
Q25.6875 48.4844 22.6719 46.5
Q19.6719 44.5312 19.6719 40.4844
Q19.6719 36.8125 21.9219 35
Q24.1719 33.2031 33.1094 31.5
L36.7188 30.8125
Q43.4062 29.5469 46.8438 25.7344
Q50.2969 21.9219 50.2969 15.8281
Q50.2969 7.71875 44.5312 3.14062
Q38.7656 -1.42188 28.5156 -1.42188
Q24.4688 -1.42188 20.0156 -0.5625
Q15.5781 0.296875 10.4062 2
L10.4062 11.2812
Q15.4375 8.6875 20.0156 7.39062
Q24.6094 6.10938 28.7188 6.10938
Q34.6719 6.10938 37.9375 8.51562
Q41.2188 10.9375 41.2188 15.2812
Q41.2188 21.5312 29.25 23.9219
L28.8594 24.0312
L25.4844 24.7031
Q17.7188 26.2188 14.1562 29.8125
Q10.5938 33.4062 10.5938 39.5938
Q10.5938 47.4688 15.9062 51.7344
Q21.2344 56 31.1094 56
Q35.5 56 39.5469 55.1875
Q43.6094 54.3906 47.5156 52.7812" id="DejaVuSansMono-73"/>
     <path d="
M18.3125 6.89062
L18.3125 -20.7969
L9.28125 -20.7969
L9.28125 54.6875
L18.3125 54.6875
L18.3125 47.7031
Q20.5625 51.7656 24.2969 53.875
Q28.0312 56 32.9062 56
Q42.8281 56 48.4688 48.3281
Q54.1094 40.6719 54.1094 27.0938
Q54.1094 13.7656 48.4375 6.17188
Q42.7812 -1.42188 32.9062 -1.42188
Q27.9375 -1.42188 24.1875 0.703125
Q20.4531 2.82812 18.3125 6.89062
M44.6719 27.2969
Q44.6719 37.75 41.375 43.0625
Q38.0938 48.3906 31.5938 48.3906
Q25.0469 48.3906 21.6719 43.0469
Q18.3125 37.7031 18.3125 27.2969
Q18.3125 16.9375 21.6719 11.5625
Q25.0469 6.20312 31.5938 6.20312
Q38.0938 6.20312 41.375 11.5156
Q44.6719 16.8438 44.6719 27.2969" id="DejaVuSansMono-70"/>
     <path d="
M54.2969 29.5938
L54.2969 25.2031
L15.375 25.2031
L15.375 24.9062
Q15.375 15.9688 20.0312 11.0781
Q24.7031 6.20312 33.2031 6.20312
Q37.5 6.20312 42.1875 7.5625
Q46.875 8.9375 52.2031 11.7188
L52.2031 2.78125
Q47.0781 0.6875 42.3125 -0.359375
Q37.5469 -1.42188 33.1094 -1.42188
Q20.3594 -1.42188 13.1719 6.21875
Q6 13.875 6 27.2969
Q6 40.375 13.0312 48.1875
Q20.0625 56 31.7812 56
Q42.2344 56 48.2656 48.9219
Q54.2969 41.8438 54.2969 29.5938
M45.3125 32.2344
Q45.125 40.1406 41.5781 44.2656
Q38.0312 48.3906 31.3906 48.3906
Q24.9062 48.3906 20.7031 44.0938
Q16.5 39.7969 15.7188 32.1719
z
" id="DejaVuSansMono-65"/>
     <path d="
M30.0781 64.2031
L19.6719 26.9062
L40.4844 26.9062
z

M24.125 72.9062
L36.0781 72.9062
L58.4062 0
L48.1875 0
L42.8281 19
L17.2812 19
L12.0156 0
L1.8125 0
z
" id="DejaVuSansMono-41"/>
     <path id="DejaVuSansMono-20"/>
     <path d="
M51.8125 2.78125
Q48.1875 0.6875 44.3594 -0.359375
Q40.5312 -1.42188 36.5312 -1.42188
Q23.8281 -1.42188 16.6719 6.1875
Q9.51562 13.8125 9.51562 27.2969
Q9.51562 40.7656 16.6719 48.375
Q23.8281 56 36.5312 56
Q40.4844 56 44.2344 54.9688
Q48 53.9531 51.8125 51.8125
L51.8125 42.3906
Q48.25 45.5625 44.6562 46.9688
Q41.0625 48.3906 36.5312 48.3906
Q28.0781 48.3906 23.5312 42.9219
Q19 37.4531 19 27.2969
Q19 17.1875 23.5625 11.6875
Q28.125 6.20312 36.5312 6.20312
Q41.2188 6.20312 44.9219 7.64062
Q48.6406 9.07812 51.8125 12.1094
z
" id="DejaVuSansMono-63"/>
     <path d="
M30.0781 48.3906
Q23.25 48.3906 19.7344 43.0625
Q16.2188 37.75 16.2188 27.2969
Q16.2188 16.8906 19.7344 11.5469
Q23.25 6.20312 30.0781 6.20312
Q36.9688 6.20312 40.4844 11.5469
Q44 16.8906 44 27.2969
Q44 37.75 40.4844 43.0625
Q36.9688 48.3906 30.0781 48.3906
M30.0781 56
Q41.4531 56 47.4844 48.625
Q53.5156 41.2656 53.5156 27.2969
Q53.5156 13.2812 47.5 5.92188
Q41.5 -1.42188 30.0781 -1.42188
Q18.7031 -1.42188 12.6875 5.92188
Q6.6875 13.2812 6.6875 27.2969
Q6.6875 41.2656 12.6875 48.625
Q18.7031 56 30.0781 56" id="DejaVuSansMono-6f"/>
    </defs>
    <g transform="translate(54.6032142857 35.1641964286)scale(0.08 -0.08)">
     <use xlink:href="#DejaVuSansMono-70"/>
     <use x="60.205078125" xlink:href="#DejaVuSansMono-72"/>
     <use x="120.41015625" xlink:href="#DejaVuSansMono-6f"/>
     <use x="180.615234375" xlink:href="#DejaVuSansMono-63"/>
     <use x="240.8203125" xlink:href="#DejaVuSansMono-65"/>
     <use x="301.025390625" xlink:href="#DejaVuSansMono-73"/>
     <use x="361.23046875" xlink:href="#DejaVuSansMono-73"/>
     <use x="421.435546875" xlink:href="#DejaVuSansMono-20"/>
     <use x="481.640625" xlink:href="#DejaVuSansMono-41"/>
    </g>
   </g>
   <g id="text_2">
    <!-- q.D() -->
    <defs>
     <path d="
M23.875 14.8906
L36.1875 14.8906
L36.1875 0
L23.875 0
z
" id="DejaVuSansMono-2e"/>
     <path d="
M17 75.875
L24.8125 75.875
Q32.1719 64.3594 35.7812 53.3125
Q39.4062 42.2812 39.4062 31.3906
Q39.4062 20.4062 35.7812 9.375
Q32.1719 -1.65625 24.8125 -13.1875
L17 -13.1875
Q23.4844 -1.85938 26.6875 9.21875
Q29.8906 20.3125 29.8906 31.3906
Q29.8906 42.5312 26.6875 53.6094
Q23.4844 64.7031 17 75.875" id="DejaVuSansMono-29"/>
     <path d="
M16.2188 27.0938
Q16.2188 16.6562 19.5 11.3281
Q22.7969 6 29.2969 6
Q35.7969 6 39.1406 11.3438
Q42.4844 16.7031 42.4844 27.0938
Q42.4844 37.5 39.1406 42.8438
Q35.7969 48.1875 29.2969 48.1875
Q22.7969 48.1875 19.5 42.8594
Q16.2188 37.5469 16.2188 27.0938
M42.4844 6.78125
Q40.2812 2.73438 36.5469 0.5625
Q32.8125 -1.60938 27.875 -1.60938
Q18.0625 -1.60938 12.375 5.98438
Q6.6875 13.5781 6.6875 26.9062
Q6.6875 40.4844 12.3438 48.1406
Q18.0156 55.8125 27.875 55.8125
Q32.7656 55.8125 36.5 53.6875
Q40.2344 51.5625 42.4844 47.5156
L42.4844 54.5
L51.5156 54.5
L51.5156 -21
L42.4844 -21
z
" id="DejaVuSansMono-71"/>
     <path d="
M21.2969 8.10938
Q33.7344 8.10938 38.6719 14.2344
Q43.6094 20.3594 43.6094 36.375
Q43.6094 52.5469 38.7031 58.6719
Q33.7969 64.7969 21.2969 64.7969
L16.6094 64.7969
L16.6094 8.10938
z

M21.4844 72.9062
Q38.1875 72.9062 46.0938 64.0156
Q54 55.125 54 36.375
Q54 17.7188 46.0938 8.85938
Q38.1875 0 21.4844 0
L6.6875 0
L6.6875 72.9062
z
" id="DejaVuSansMono-44"/>
     <path d="
M43.2188 75.875
Q36.7188 64.75 33.5156 53.6875
Q30.3281 42.625 30.3281 31.3906
Q30.3281 20.2188 33.5156 9.125
Q36.7188 -1.95312 43.2188 -13.1875
L35.4062 -13.1875
Q28.0312 -1.5625 24.4062 9.4375
Q20.7969 20.4531 20.7969 31.3906
Q20.7969 42.2812 24.4062 53.3125
Q28.0312 64.3594 35.4062 75.875
z
" id="DejaVuSansMono-28"/>
    </defs>
    <g transform="translate(345.935892857 28.9497321429)scale(0.08 -0.08)">
     <use xlink:href="#DejaVuSansMono-71"/>
     <use x="60.205078125" xlink:href="#DejaVuSansMono-2e"/>
     <use x="120.41015625" xlink:href="#DejaVuSansMono-44"/>
     <use x="180.615234375" xlink:href="#DejaVuSansMono-28"/>
     <use x="240.8203125" xlink:href="#DejaVuSansMono-29"/>
    </g>
   </g>
   <g id="text_3">
    <!-- q.Ok(z) -->
    <defs>
     <path d="
M11.0781 54.7812
L50.7812 54.7812
L50.7812 46.5781
L19.3906 7.32812
L50.7812 7.32812
L50.7812 0
L9.90625 0
L9.90625 8.29688
L41.3125 47.6094
L11.0781 47.6094
z
" id="DejaVuSansMono-7a"/>
     <path d="
M44.1875 36.375
Q44.1875 52.4375 40.8906 59.3281
Q37.5938 66.2188 30.0781 66.2188
Q22.6094 66.2188 19.3125 59.3281
Q16.0156 52.4375 16.0156 36.375
Q16.0156 20.3594 19.3125 13.4688
Q22.6094 6.59375 30.0781 6.59375
Q37.5938 6.59375 40.8906 13.4531
Q44.1875 20.3125 44.1875 36.375
M54.5 36.375
Q54.5 17.3281 48.4688 7.95312
Q42.4375 -1.42188 30.0781 -1.42188
Q17.7188 -1.42188 11.7188 7.90625
Q5.71875 17.2344 5.71875 36.375
Q5.71875 55.4688 11.75 64.8438
Q17.7812 74.2188 30.0781 74.2188
Q42.4375 74.2188 48.4688 64.8438
Q54.5 55.4688 54.5 36.375" id="DejaVuSansMono-4f"/>
     <path d="
M11.5312 75.9844
L20.7969 75.9844
L20.7969 31.9844
L44.3906 54.6875
L55.3281 54.6875
L33.7969 34.0781
L58.6875 0
L47.7031 0
L27.4844 28.2188
L20.7969 21.9219
L20.7969 0
L11.5312 0
z
" id="DejaVuSansMono-6b"/>
    </defs>
    <g transform="translate(420.833928571 28.9497321429)scale(0.08 -0.08)">
     <use xlink:href="#DejaVuSansMono-71"/>
     <use x="60.205078125" xlink:href="#DejaVuSansMono-2e"/>
     <use x="120.41015625" xlink:href="#DejaVuSansMono-4f"/>
     <use x="180.615234375" xlink:href="#DejaVuSansMono-6b"/>
     <use x="240.8203125" xlink:href="#DejaVuSansMono-28"/>
     <use x="301.025390625" xlink:href="#DejaVuSansMono-7a"/>
     <use x="361.23046875" xlink:href="#DejaVuSansMono-29"/>
    </g>
   </g>
   <g id="text_4">
    <!-- process C -->
    <defs>
     <path d="
M52.3906 2.59375
Q48.6406 0.59375 44.6719 -0.40625
Q40.7188 -1.42188 36.2812 -1.42188
Q22.2656 -1.42188 14.5156 8.48438
Q6.78125 18.4062 6.78125 36.375
Q6.78125 54.25 14.5625 64.2344
Q22.3594 74.2188 36.2812 74.2188
Q40.7188 74.2188 44.6719 73.2188
Q48.6406 72.2188 52.3906 70.2188
L52.3906 60.1094
Q48.7812 63.0938 44.625 64.6562
Q40.4844 66.2188 36.2812 66.2188
Q26.6562 66.2188 21.875 58.7969
Q17.0938 51.375 17.0938 36.375
Q17.0938 21.4375 21.875 14.0156
Q26.6562 6.59375 36.2812 6.59375
Q40.5781 6.59375 44.7031 8.15625
Q48.8281 9.71875 52.3906 12.7031
z
" id="DejaVuSansMono-43"/>
    </defs>
    <g transform="translate(55.0844642857 114.878482143)scale(0.08 -0.08)">
     <use xlink:href="#DejaVuSansMono-70"/>
     <use x="60.205078125" xlink:href="#DejaVuSansMono-72"/>
     <use x="120.41015625" xlink:href="#DejaVuSansMono-6f"/>
     <use x="180.615234375" xlink:href="#DejaVuSansMono-63"/>
     <use x="240.8203125" xlink:href="#DejaVuSansMono-65"/>
     <use x="301.025390625" xlink:href="#DejaVuSansMono-73"/>
     <use x="361.23046875" xlink:href="#DejaVuSansMono-73"/>
     <use x="421.435546875" xlink:href="#DejaVuSansMono-20"/>
     <use x="481.640625" xlink:href="#DejaVuSansMono-43"/>
    </g>
   </g>
   <g id="text_5">
    <!-- process B -->
    <defs>
     <path d="
M18.0156 34.8125
L18.0156 8.10938
L29.6875 8.10938
Q38.2812 8.10938 41.9375 11.1094
Q45.6094 14.1094 45.6094 21
Q45.6094 28.125 41.75 31.4688
Q37.8906 34.8125 29.6875 34.8125
z

M18.0156 64.7969
L18.0156 42.8281
L29.5 42.8281
Q36.625 42.8281 39.8125 45.5625
Q43.0156 48.2969 43.0156 54.3906
Q43.0156 59.9062 39.8594 62.3438
Q36.7188 64.7969 29.5 64.7969
z

M8.10938 72.9062
L29.6875 72.9062
Q40.875 72.9062 46.9219 68.0625
Q52.9844 63.2344 52.9844 54.3906
Q52.9844 47.7031 49.7812 43.8438
Q46.5781 39.9844 40.1875 39.0156
Q47.3594 37.9375 51.4375 32.875
Q55.5156 27.8281 55.5156 20.0156
Q55.5156 10.1094 49.0156 5.04688
Q42.5312 0 29.6875 0
L8.10938 0
z
" id="DejaVuSansMono-42"/>
    </defs>
    <g transform="translate(54.8344642857 75.0213392857)scale(0.08 -0.08)">
     <use xlink:href="#DejaVuSansMono-70"/>
     <use x="60.205078125" xlink:href="#DejaVuSansMono-72"/>
     <use x="120.41015625" xlink:href="#DejaVuSansMono-6f"/>
     <use x="180.615234375" xlink:href="#DejaVuSansMono-63"/>
     <use x="240.8203125" xlink:href="#DejaVuSansMono-65"/>
     <use x="301.025390625" xlink:href="#DejaVuSansMono-73"/>
     <use x="361.23046875" xlink:href="#DejaVuSansMono-73"/>
     <use x="421.435546875" xlink:href="#DejaVuSansMono-20"/>
     <use x="481.640625" xlink:href="#DejaVuSansMono-42"/>
    </g>
   </g>
   <g id="text_6">
    <!-- q.E(z) -->
    <defs>
     <path d="
M9.625 72.9062
L52.875 72.9062
L52.875 64.5938
L19.4844 64.5938
L19.4844 43.0156
L51.4219 43.0156
L51.4219 34.7188
L19.4844 34.7188
L19.4844 8.29688
L53.8125 8.29688
L53.8125 0
L9.625 0
z
" id="DejaVuSansMono-45"/>
    </defs>
    <g transform="translate(303.670625 68.806875)scale(0.08 -0.08)">
     <use xlink:href="#DejaVuSansMono-71"/>
     <use x="60.205078125" xlink:href="#DejaVuSansMono-2e"/>
     <use x="120.41015625" xlink:href="#DejaVuSansMono-45"/>
     <use x="180.615234375" xlink:href="#DejaVuSansMono-28"/>
     <use x="240.8203125" xlink:href="#DejaVuSansMono-7a"/>
     <use x="301.025390625" xlink:href="#DejaVuSansMono-29"/>
    </g>
   </g>
   <g id="text_7">
    <!-- q.Ok() -->
    <g transform="translate(383.384910714 68.806875)scale(0.08 -0.08)">
     <use xlink:href="#DejaVuSansMono-71"/>
     <use x="60.205078125" xlink:href="#DejaVuSansMono-2e"/>
     <use x="120.41015625" xlink:href="#DejaVuSansMono-4f"/>
     <use x="180.615234375" xlink:href="#DejaVuSansMono-6b"/>
     <use x="240.8203125" xlink:href="#DejaVuSansMono-28"/>
     <use x="301.025390625" xlink:href="#DejaVuSansMono-29"/>
    </g>
   </g>
  </g>
 </g>
 <defs>
  <clipPath id="p6224cf1f7c">
   <rect height="119.571428571" width="558.0" x="38.02" y="13.006875"/>
  </clipPath>
 </defs>
</svg>
